<svg width="26" height="26" viewBox="0 0 26 26" fill="none" xmlns="http://www.w3.org/2000/svg">
<path fill-rule="evenodd" clip-rule="evenodd" d="M13.2124 12.7229C9.69661 9.33631 9.53154 0.7771 9.53154 0.7771L9.52966 0.777678C9.21066 0.876028 8.89644 0.986893 8.58768 1.10985C6.88557 1.78769 5.34925 2.8331 4.09097 4.17596C2.60399 5.7629 1.55676 7.71032 1.05274 9.82585C0.548725 11.9414 0.605355 14.1518 1.21704 16.2387C1.82873 18.3257 2.9743 20.2169 4.54059 21.7256C6.10688 23.2343 8.03969 24.3083 10.1481 24.8414C12.2564 25.3746 14.4674 25.3484 16.5626 24.7655C18.6578 24.1827 20.5646 23.0633 22.0948 21.5179C23.3896 20.2103 24.3768 18.6359 24.9904 16.9096C25.1017 16.5964 25.2008 16.2782 25.2871 15.9556L25.2876 15.9539C25.2876 15.9539 24.913 15.9607 24.2883 15.9405C21.927 15.864 15.9927 15.4009 13.2124 12.7229ZM24.021 16.6502C23.4547 18.2088 22.5565 19.6304 21.3842 20.8143C19.9764 22.236 18.2221 23.2659 16.2946 23.8021C14.367 24.3384 12.3329 24.3624 10.3932 23.872C8.45351 23.3815 6.67532 22.3934 5.23434 21.0054C3.79335 19.6174 2.73942 17.8774 2.17667 15.9575C1.61392 14.0375 1.56182 12.0039 2.02552 10.0576C2.48922 8.11132 3.45267 6.31969 4.82069 4.85971C5.95992 3.6439 7.3469 2.69311 8.88318 2.06886C8.88318 2.06886 9.04176 10.2922 12.4196 13.5459C15.7975 16.7996 24.021 16.6502 24.021 16.6502Z" fill="#011B0D"/>
<path d="M24.021 16.6502C23.4547 18.2088 22.5565 19.6304 21.3842 20.8143C19.9764 22.236 18.2221 23.2659 16.2946 23.8021C14.367 24.3384 12.3329 24.3624 10.3932 23.872C8.45351 23.3815 6.67532 22.3934 5.23434 21.0054C3.79335 19.6174 2.73942 17.8774 2.17667 15.9575C1.61392 14.0375 1.56182 12.0039 2.02552 10.0576C2.48922 8.11132 3.45267 6.31969 4.82069 4.85971C5.95992 3.6439 7.3469 2.69311 8.88318 2.06886C8.88318 2.06886 9.04176 10.2922 12.4196 13.5459C15.7975 16.7996 24.021 16.6502 24.021 16.6502Z" fill="#011B0D"/>
</svg>
